Coordinates
version=1
nRows=9
nColumns=24
inDegrees=yes

Units are S.I. units (second, meters, Newtons, ...)
Angles are in degrees.

endheader
time	pelvis_tilt	pelvis_list	pelvis_rotation	pelvis_tx	pelvis_ty	pelvis_tz	hip_flexion_r	hip_adduction_r	hip_rotation_r	knee_angle_r	ankle_angle_r	subtalar_angle_r	mtp_angle_r	hip_flexion_l	hip_adduction_l	hip_rotation_l	knee_angle_l	ankle_angle_l	subtalar_angle_l	mtp_angle_l	lumbar_extension	lumbar_bending	lumbar_rotation
      1.06300000	     -2.48653341	     -1.73588403	     -6.08994065	     -0.15486869	      0.88678361	      0.38221691	    -15.64802841	      5.94258769	      1.98710976	     -6.34652635	     18.71269215	     13.93240723	      7.85478446	     28.28379774	     -3.31547764	    -14.81910160	     -6.27812226	      1.70466729	      0.74054617	     -0.24970123	     -4.67598942	      2.55531151	     13.04850263
      1.06716667	     -2.57878768	     -1.67685350	     -6.21177394	     -0.14926098	      0.88567700	      0.38223799	    -15.65970923	      5.79557309	      1.96676109	     -6.90903681	     18.92991444	     14.23498844	      8.40716447	     28.44570640	     -3.25924741	    -14.59224209	     -6.66322140	      1.56202833	      0.50672086	     -0.13560526	     -4.57176183	      2.41242154	     13.12305150
      1.07133333	     -2.66413674	     -1.62015080	     -6.32272283	     -0.14363077	      0.88464441	      0.38227774	    -15.68449217	      5.66267236	      2.03005220	     -7.45826326	     18.99990557	     14.25162242	      8.49544414	     28.62035405	     -3.21596797	    -14.42744802	     -7.16810451	      1.42205638	      0.35659919	     -0.11170040	     -4.48057323	      2.28351203	     13.13483753
      1.07550000	     -2.79919659	     -1.55884354	     -6.43224627	     -0.13800187	      0.88358480	      0.38229182	    -15.60387633	      5.52326100	      2.01539505	     -8.11211669	     19.14448400	     14.54108383	      8.69231783	     28.83146643	     -3.15844293	    -14.13100479	     -7.69118304	      1.21156366	      0.02849400	     -0.04510696	     -4.30981074	      2.12769755	     13.18656513
      1.07966667	     -2.87531152	     -1.46429767	     -6.52256851	     -0.13230133	      0.88267741	      0.38226574	    -15.57799378	      5.34270122	      1.94841840	     -8.77760779	     19.23406318	     14.80781347	      8.94419830	     28.97326455	     -3.05173651	    -13.86380624	     -8.26032905	      0.95040797	     -0.38564212	      0.05036086	     -4.21137451	      1.93359678	     13.21265010
      1.08383333	     -2.94381201	     -1.36398659	     -6.59444107	     -0.12656314	      0.88184129	      0.38221057	    -15.55599046	      5.15933977	      1.88640413	     -9.44905180	     19.24902935	     15.03540890	      9.24045908	     29.11161449	     -2.92970308	    -13.58353523	     -8.88660363	      0.66036430	     -0.84346994	      0.17021972	     -4.11795643	      1.73206230	     13.21228679
      1.08800000	     -3.00298137	     -1.25381366	     -6.65886025	     -0.12078998	      0.88108371	      0.38214731	    -15.52607645	      4.96665886	      1.82530562	    -10.15354738	     19.21415077	     15.22693901	      9.57194714	     29.24177441	     -2.79455588	    -13.31470709	     -9.56241385	      0.35215059	     -1.33882045	      0.30832967	     -4.02896245	      1.51663900	     13.19495398
      1.09216667	     -2.98377643	     -1.11092837	     -6.70635601	     -0.11493213	      0.88052426	      0.38204963	    -15.58069647	      4.73035575	      1.73979283	    -10.84293369	     19.05427166	     15.33014590	     13.89783831	     29.26296846	     -2.60617258	    -13.07563487	    -10.21515331	     -0.09680719	     -1.90426889	      2.19753712	     -4.02725162	      1.24338425	     13.14111593
      1.09633333	     -3.05767939	     -1.02554282	     -6.72601767	     -0.10909759	      0.87986619	      0.38193324	    -15.52094500	      4.57886326	      1.68463364	    -11.56996791	     18.82004666	     15.46941179	     13.96076406	     29.44950764	     -2.48823025	    -12.80411120	    -11.05384940	     -0.29090801	     -2.35752800	      2.23151292	     -3.90651183	      1.06163554	     13.12158532
